<svg width="219" height="48" viewBox="0 0 219 48" fill="none" xmlns="http://www.w3.org/2000/svg">
    <path d="M53.3542 14.3166V38.7623H58.6043V29.1614H66.1209L67.9782 24.4412H58.6043V19.0368H70.1037L71.9611 14.3166H53.3542Z" fill="white"/>
    <path d="M83.215 28.4634H77.2653L80.2488 20.4335L83.215 28.4634ZM84.9536 32.995L87.0505 38.7625H92.642L83.0272 14.3169H77.4531L67.8382 38.7625H73.4298L75.5266 32.995H84.9536Z" fill="white"/>
    <path d="M142.207 14.3169V19.0371H149.197V38.7625H154.43V19.0371H161.402V14.3169H142.207Z" fill="white"/>
    <path d="M176.685 34.566C175.197 34.566 173.921 34.0145 172.858 32.9043C171.796 31.7941 171.265 30.4324 171.265 28.8055V14.3169H166.031V28.8055C166.031 31.78 167.043 34.2728 169.065 36.2767C171.088 38.2877 173.626 39.2862 176.677 39.2862C179.728 39.2862 182.266 38.2877 184.289 36.2767C186.311 34.2728 187.323 31.78 187.323 28.8055V14.3169H182.09V28.8055C182.09 30.4394 181.561 31.8081 180.504 32.9113C179.447 34.0145 178.174 34.566 176.685 34.566Z" fill="white"/>
    <path d="M205.691 24.9722L197.321 14.3169H192.598V38.7625H197.849V22.5283L205.691 32.4713L213.549 22.4654V38.7625H218.783V14.3169H214.146L205.691 24.9722Z" fill="white"/>
    <path d="M118.848 20.5792L117.059 27.7224C117.059 27.7224 116.872 29.4602 119.825 33.6892C122.095 36.8016 125.777 38.8478 129.895 38.88C134.263 38.9045 138.1 36.6702 140.273 33.2795L136.092 30.5777C134.772 32.6126 132.476 33.9683 129.852 33.941C125.754 33.9209 122.402 30.5735 122.367 26.4715C122.32 22.389 125.626 19.1038 129.744 19.136C131.829 19.1545 133.744 20.0347 135.099 21.4307L138.631 18.0426C136.352 15.7037 133.198 14.2228 129.702 14.1969C124.981 14.1706 120.91 16.7445 118.848 20.5792Z" fill="white"/>
    <path d="M92.6985 26.4758C92.7396 33.303 98.2834 38.8598 105.132 38.8815C108.663 38.8829 111.855 37.4116 114.093 35.0322C114.699 34.4061 115.236 33.6932 115.706 32.9242C115.706 32.9242 116.573 31.7797 117.744 30.237C120.047 27.2323 123.448 22.7378 123.542 22.5901C123.542 22.5901 123.542 22.5901 123.556 22.5734C124.865 20.523 127.171 19.1909 129.789 19.1947C130.982 19.1989 132.092 19.4737 133.1 19.9743C131.566 18.4974 129.462 17.5349 127.29 17.1669L126.99 17.1156C126.99 17.1156 126.99 17.1156 127.007 17.1296L126.96 17.1183L126.521 17.0637L126.208 17.0291C126.225 17.0431 126.255 17.0404 126.255 17.0404L126.146 17.0344C126.163 17.0484 126.177 17.0317 126.177 17.0317L125.976 17.0338C125.99 17.0171 125.99 17.0171 125.99 17.0171L125.649 17.0159L125.308 17.0147C125.339 17.012 125.356 17.026 125.369 17.0093L125.015 17.0248L124.861 17.0382L124.769 17.0463C124.783 17.0296 124.8 17.0436 124.83 17.0409L124.615 17.0597L124.506 17.0537C124.523 17.0677 124.523 17.0677 124.523 17.0677L124.247 17.0919L124.018 17.1273C124.031 17.1106 124.048 17.1247 124.062 17.108L123.758 17.1655L123.44 17.2398C123.453 17.2231 123.484 17.2204 123.484 17.2204L123.166 17.2946L122.94 17.3608L123.046 17.3361L122.683 17.4297L122.518 17.4906C122.549 17.4879 122.549 17.4879 122.563 17.4712L122.505 17.5073C122.488 17.4933 122.488 17.4933 122.474 17.51C122.488 17.4933 122.488 17.4933 122.505 17.5073L122.131 17.6483L121.729 17.8228C121.76 17.8201 121.774 17.8034 121.787 17.7867L121.492 17.9365L121.316 18.0447C121.33 18.028 121.361 18.0253 121.375 18.0086L121.082 18.1891L120.734 18.4364C120.72 18.4531 120.689 18.4558 120.675 18.4725C120.689 18.4558 120.72 18.4531 120.734 18.4364L120.474 18.6449C120.488 18.6282 120.502 18.6115 120.516 18.5947L120.288 18.8006C120.302 18.7839 120.346 18.7645 120.36 18.7478L120.146 18.9369C120.16 18.9202 120.174 18.9035 120.174 18.9035C120.16 18.9202 120.146 18.9369 120.118 18.9703C120.132 18.9536 120.132 18.9536 120.146 18.9369L119.976 19.1066C119.99 19.0899 120.004 19.0732 120.004 19.0732C119.99 19.0899 119.976 19.1066 119.948 19.14C119.962 19.1233 119.962 19.1233 119.976 19.1066L119.823 19.2903C119.837 19.2736 119.837 19.2736 119.851 19.2569C119.837 19.2736 119.809 19.307 119.795 19.3237L119.809 19.307L119.642 19.5075C119.642 19.5075 119.642 19.5075 119.628 19.5242C117.325 22.5288 111.319 30.5966 111.319 30.5966L111.044 30.9614C109.712 32.766 107.545 33.931 105.097 33.9279C101.007 33.9133 97.6727 30.5953 97.672 26.4907C97.6406 22.3888 100.954 19.0946 105.058 19.0925C106.981 19.1105 108.738 19.84 110.044 21.0425L112.967 17.0544C110.814 15.2597 108.047 14.1692 105.041 14.1529C98.2091 14.1453 92.6881 19.6459 92.6985 26.4758ZM126.725 17.0923C126.725 17.0923 126.756 17.0896 126.786 17.087C126.756 17.0896 126.725 17.0923 126.725 17.0923ZM124.353 17.0671L124.247 17.0919L124.353 17.0671ZM123.758 17.1655C123.758 17.1655 123.744 17.1822 123.727 17.1682C123.744 17.1822 123.758 17.1655 123.758 17.1655ZM123.272 17.2699L123.197 17.292L123.272 17.2699ZM122.803 17.3883C122.803 17.3883 122.745 17.4244 122.714 17.427C122.745 17.4244 122.803 17.3883 122.803 17.3883ZM122.041 17.6871C122.041 17.6871 121.997 17.7065 121.966 17.7092C121.997 17.7065 122.041 17.6871 122.041 17.6871ZM121.612 17.895C121.612 17.895 121.536 17.9171 121.523 17.9338C121.536 17.9171 121.612 17.895 121.612 17.895ZM121.185 18.1336C121.185 18.1336 121.141 18.153 121.113 18.1864C121.141 18.153 121.185 18.1336 121.185 18.1336ZM125.369 17.0093L125.386 17.0233L125.369 17.0093ZM125.031 17.0388L125.124 17.0308L125.031 17.0388ZM124.83 17.0409C124.83 17.0409 124.844 17.0242 124.861 17.0382C124.844 17.0242 124.83 17.0409 124.83 17.0409ZM127.038 17.127C127.038 17.127 127.021 17.1129 127.007 17.1296C127.021 17.1129 127.038 17.127 127.038 17.127ZM124.062 17.108C124.062 17.108 124.079 17.122 124.093 17.1053C124.079 17.122 124.062 17.108 124.062 17.108ZM123.484 17.2204L123.515 17.2177L123.484 17.2204ZM122.505 17.5073L122.518 17.4906L122.505 17.5073ZM122.265 17.5902C122.265 17.5902 122.278 17.5735 122.295 17.5875C122.278 17.5735 122.265 17.5902 122.265 17.5902ZM121.787 17.7867L121.818 17.7841L121.787 17.7867ZM121.375 18.0086L121.389 17.9919L121.375 18.0086ZM120.906 18.2974C120.906 18.2974 120.951 18.278 120.965 18.2613C120.951 18.278 120.906 18.2974 120.906 18.2974ZM120.516 18.5947C120.516 18.5947 120.53 18.578 120.547 18.5921C120.53 18.578 120.516 18.5947 120.516 18.5947ZM119.809 19.307L119.823 19.2903L119.809 19.307Z" fill="white"/>
    <path fill-rule="evenodd" clip-rule="evenodd" d="M34.4738 26.5385C33.1861 17.3088 23.8766 13.1698 16.5575 17.8485C12.9084 20.1812 6.43707 26.5385 6.43707 26.5385H6.10352e-05C6.10352e-05 26.5385 8.49842 18.1517 13.339 14.773C24.4488 7.01888 37.8193 13.87 38.8725 26.5385H34.4738Z" fill="white"/>
    <path fill-rule="evenodd" clip-rule="evenodd" d="M12.3744 26.5376C13.6621 35.7672 22.9716 39.9063 30.2907 35.2276C33.9398 32.8949 40.4111 26.5376 40.4111 26.5376H46.8481C46.8481 26.5376 38.3498 34.9243 33.5092 38.3031C22.3994 46.0572 9.02892 39.206 7.97575 26.5376H12.3744Z" fill="white"/>
    <path d="M20.8018 31.0584L27.7358 26.5247L20.8018 21.9909L20.8018 31.0584Z" fill="white"/>
    </svg>
    